<svg id="construction_x5F_site" enable-background="new 0 0 300 300" height="512" viewBox="0 0 300 300" width="512" xmlns="http://www.w3.org/2000/svg"><circle cx="132" cy="138" fill="#e5efef" r="86"/><path d="m254 268h-208c-8.837 0-16-7.163-16-16 0-8.837 7.163-16 16-16h208c8.837 0 16 7.163 16 16 0 8.837-7.163 16-16 16z" fill="#bf7e68"/><path d="m254 272h-208c-11.028 0-20-8.972-20-20s8.972-20 20-20h208c11.028 0 20 8.972 20 20s-8.972 20-20 20zm-208-32c-6.617 0-12 5.383-12 12s5.383 12 12 12h208c6.617 0 12-5.383 12-12s-5.383-12-12-12z" fill="#4c241d"/><path d="m120 236h-60c-7.732 0-14-6.268-14-14 0-7.732 6.268-14 14-14h60c7.732 0 14 6.268 14 14 0 7.732-6.268 14-14 14z" fill="#6b4f5b"/><path d="m120 240h-60c-9.925 0-18-8.075-18-18s8.075-18 18-18h60c9.925 0 18 8.075 18 18s-8.075 18-18 18zm-60-28c-5.514 0-10 4.486-10 10s4.486 10 10 10h60c5.514 0 10-4.486 10-10s-4.486-10-10-10z" fill="#4c241d"/><path d="m74 176 96-112v32l-76 88z" fill="#fc8c29"/><path d="m93.999 188c-.499 0-1.002-.093-1.484-.286l-20-8c-1.198-.479-2.092-1.507-2.399-2.76s.008-2.577.848-3.558l96-112c1.09-1.271 2.855-1.727 4.425-1.148 1.569.581 2.611 2.078 2.611 3.752v32c0 .96-.346 1.888-.973 2.614l-76 88c-.776.899-1.889 1.386-3.028 1.386zm-13.326-13.639 12.164 4.865 73.163-84.714v-19.699z" fill="#4c241d"/><path d="m170 140c-2.209 0-4-1.791-4-4v-72c0-2.209 1.791-4 4-4s4 1.791 4 4v72c0 2.209-1.791 4-4 4z" fill="#4c241d"/><path d="m158 136h28v28h-28z" fill="#b5a19c"/><path d="m186 168h-28c-2.209 0-4-1.791-4-4v-28c0-2.209 1.791-4 4-4h28c2.209 0 4 1.791 4 4v28c0 2.209-1.791 4-4 4zm-24-8h20v-20h-20z" fill="#4c241d"/><path d="m234 204h16v64h-16z" fill="#ffce56"/><path d="m250 272h-16c-2.209 0-4-1.791-4-4v-64c0-2.209 1.791-4 4-4h16c2.209 0 4 1.791 4 4v64c0 2.209-1.791 4-4 4zm-12-8h8v-56h-8z" fill="#4c241d"/><path d="m198 204h16v64h-16z" fill="#ffce56"/><path d="m214 272h-16c-2.209 0-4-1.791-4-4v-64c0-2.209 1.791-4 4-4h16c2.209 0 4 1.791 4 4v64c0 2.209-1.791 4-4 4zm-12-8h8v-56h-8z" fill="#4c241d"/><path d="m162 204h16v64h-16z" fill="#ffce56"/><path d="m178 272h-16c-2.209 0-4-1.791-4-4v-64c0-2.209 1.791-4 4-4h16c2.209 0 4 1.791 4 4v64c0 2.209-1.791 4-4 4zm-12-8h8v-56h-8z" fill="#4c241d"/><path d="m94 156h24" fill="#fc8c29"/><path d="m118 160h-24c-2.209 0-4-1.791-4-4s1.791-4 4-4h24c2.209 0 4 1.791 4 4s-1.791 4-4 4z" fill="#4c241d"/><path d="m113.5 132h25.5" fill="#fc8c29"/><path d="m139 136h-25.5c-2.209 0-4-1.791-4-4s1.791-4 4-4h25.5c2.209 0 4 1.791 4 4s-1.791 4-4 4z" fill="#4c241d"/><path d="m137.493 104h21.507" fill="#fc8c29"/><path d="m159 108h-21.507c-2.209 0-4-1.791-4-4s1.791-4 4-4h21.507c2.209 0 4 1.791 4 4s-1.791 4-4 4z" fill="#4c241d"/><path d="m126 208h-72v-32h21.581c16.631 0 32.292 7.83 42.27 21.135z" fill="#9dc1e4"/><path d="m126 212h-72c-2.209 0-4-1.791-4-4v-32c0-2.209 1.791-4 4-4h21.581c17.795 0 34.794 8.499 45.471 22.734l8.148 10.866c.909 1.212 1.055 2.833.378 4.188-.678 1.356-2.063 2.212-3.578 2.212zm-68-8h60l-3.349-4.465c-9.173-12.232-23.779-19.535-39.07-19.535h-17.581z" fill="#4c241d"/><path d="m198 140 16-4" fill="#9dc1e4"/><path d="m197.997 144.001c-1.792 0-3.423-1.213-3.878-3.031-.535-2.143.768-4.314 2.911-4.851l16-4c2.14-.534 4.314.767 4.851 2.911.535 2.143-.768 4.314-2.911 4.851l-16 4c-.325.081-.652.12-.973.12z" fill="#4c241d"/><path d="m198 164 16 4" fill="#9dc1e4"/><path d="m214.003 172.001c-.321 0-.647-.039-.973-.12l-16-4c-2.144-.536-3.446-2.708-2.911-4.851.536-2.145 2.711-3.444 4.851-2.911l16 4c2.144.536 3.446 2.708 2.911 4.851-.455 1.818-2.086 3.031-3.878 3.031z" fill="#4c241d"/><path d="m260.16 118.313c-.221 0-.444-.019-.67-.057-1.37-.23-2.747-.493-4.094-.778-2.161-.459-3.541-2.582-3.083-4.743.459-2.161 2.581-3.544 4.743-3.083 1.237.263 2.503.504 3.764.716 2.178.367 3.646 2.431 3.279 4.609-.328 1.954-2.022 3.336-3.939 3.336zm-19.222-5.399c-.497 0-1.001-.093-1.49-.289-1.29-.519-2.579-1.068-3.83-1.636-2.013-.911-2.905-3.281-1.994-5.293.911-2.013 3.281-2.907 5.293-1.994 1.147.519 2.329 1.023 3.514 1.499 2.05.824 3.044 3.153 2.221 5.203-.628 1.561-2.129 2.51-3.714 2.51zm-17.605-9.386c-.774 0-1.557-.224-2.246-.692-1.134-.771-2.276-1.585-3.395-2.418-1.771-1.319-2.138-3.825-.818-5.598 1.319-1.771 3.825-2.137 5.598-.818 1.026.765 2.074 1.512 3.115 2.219 1.826 1.243 2.3 3.73 1.058 5.558-.775 1.137-2.032 1.749-3.312 1.749zm-15.202-12.922c-1.059 0-2.114-.417-2.9-1.244-.956-1.007-1.9-2.043-2.807-3.079-1.453-1.664-1.282-4.191.381-5.645 1.666-1.452 4.191-1.282 5.645.381.832.953 1.7 1.905 2.58 2.831 1.521 1.602 1.458 4.133-.144 5.655-.775.736-1.766 1.101-2.755 1.101zm-12.148-15.835c-1.348 0-2.663-.682-3.417-1.916-.726-1.187-1.432-2.398-2.099-3.601-1.071-1.932-.374-4.366 1.558-5.438 1.933-1.07 4.366-.373 5.438 1.558.612 1.104 1.262 2.219 1.929 3.312 1.152 1.885.558 4.347-1.328 5.498-.65.398-1.37.587-2.081.587z" fill="#4c241d"/><path d="m84 56c-.854 0-1.668.14-2.46.341-1.66-7.066-7.968-12.341-15.54-12.341s-13.88 5.275-15.54 12.341c-.792-.201-1.606-.341-2.46-.341-5.523 0-10 4.477-10 10s4.477 10 10 10h36c5.523 0 10-4.477 10-10s-4.477-10-10-10z" fill="#fff"/><g fill="#4c241d"><path d="m84 80h-36c-7.72 0-14-6.28-14-14 0-7.618 6.117-13.835 13.697-13.997 3.121-7.214 10.215-12.003 18.303-12.003s15.182 4.789 18.303 12.003c7.58.162 13.697 6.379 13.697 13.997 0 7.72-6.28 14-14 14zm-36-20c-3.309 0-6 2.691-6 6s2.691 6 6 6h36c3.309 0 6-2.691 6-6s-2.691-6-6-6c-.422 0-.891.069-1.476.218-1.04.263-2.143.101-3.061-.458-.917-.557-1.572-1.459-1.817-2.504-1.281-5.45-6.07-9.256-11.646-9.256s-10.365 3.806-11.646 9.256c-.245 1.045-.9 1.947-1.817 2.504-.919.559-2.021.721-3.061.458-.585-.149-1.054-.218-1.476-.218z"/><path d="m242 48c-2.209 0-4-1.791-4-4v-12c0-2.209 1.791-4 4-4s4 1.791 4 4v12c0 2.209-1.791 4-4 4z"/><path d="m242 76c-2.209 0-4-1.791-4-4v-12c0-2.209 1.791-4 4-4s4 1.791 4 4v12c0 2.209-1.791 4-4 4z"/><path d="m234 56h-12c-2.209 0-4-1.791-4-4s1.791-4 4-4h12c2.209 0 4 1.791 4 4s-1.791 4-4 4z"/><path d="m262 56h-12c-2.209 0-4-1.791-4-4s1.791-4 4-4h12c2.209 0 4 1.791 4 4s-1.791 4-4 4z"/><path d="m66 130.44c-7.963 0-14.44-6.478-14.44-14.44s6.478-14.44 14.44-14.44 14.44 6.478 14.44 14.44-6.477 14.44-14.44 14.44zm0-20.88c-3.551 0-6.44 2.89-6.44 6.44s2.89 6.44 6.44 6.44 6.44-2.89 6.44-6.44-2.889-6.44-6.44-6.44z"/></g></svg>